<svg xmlns="http://www.w3.org/2000/svg" xmlns:xlink="http://www.w3.org/1999/xlink" version="1.1" x="0px" y="0px" viewBox="0 0 100 125" enable-background="new 0 0 100 100" xml:space="preserve"><polygon points="23.08,35.822 22.056,44.832 33.123,44.832 32.091,35.822 "/><polygon points="23.08,83 22.056,73.982 33.123,73.982 32.091,83 "/><polygon points="4,63.914 13.01,64.943 13.01,53.871 4,54.9 "/><polygon points="51.17,63.914 42.161,64.943 42.161,53.871 51.17,54.9 "/><path d="M41.107,45.889c-7.466-7.462-19.569-7.458-27.034,0c-7.468,7.468-7.474,19.574,0,27.039c7.457,7.461,19.567,7.461,27.034,0  C48.566,65.463,48.566,53.352,41.107,45.889z M36.409,68.225c-4.876,4.877-12.771,4.877-17.639,0  c-4.869-4.869-4.869-12.762,0-17.633c4.868-4.866,12.763-4.869,17.639,0C41.276,55.463,41.276,63.355,36.409,68.225z"/><polygon points="47.45,72.896 41.806,65.805 33.982,73.635 41.078,79.279 "/><polygon points="14.095,39.546 21.189,45.194 13.369,53.018 7.721,45.917 "/><polygon points="14.095,79.279 21.189,73.629 13.369,65.805 7.721,72.896 "/><polygon points="25.531,16.646 34.246,19.167 29.974,29.379 22.056,24.963 "/><g><polygon points="82.906,29.379 78.102,34.828 85.378,39.902 88.825,33.507  "/><polygon points="61.283,60.375 64.733,53.984 72.006,59.053 67.199,64.502  "/><polygon points="57.487,39.086 62.938,43.889 68.008,36.617 61.617,33.165  "/><polygon points="88.481,60.717 82.094,57.258 87.16,49.986 92.615,54.787  "/><path d="M90.134,44.253c-1.489-8.329-9.447-13.866-17.771-12.395c-8.318,1.491-13.874,9.434-12.389,17.766   c1.481,8.323,9.424,13.872,17.761,12.401C86.06,60.533,91.612,52.58,90.134,44.253z M76.8,56.779   c-5.426,0.965-10.612-2.656-11.576-8.083c-0.97-5.433,2.652-10.619,8.081-11.591c5.424-0.961,10.612,2.65,11.583,8.083   C85.851,50.623,82.229,55.805,76.8,56.779z"/><polygon points="81.913,64.91 81.465,57.662 72.736,59.217 74.81,66.176  "/><polygon points="75.295,27.706 77.362,34.667 68.634,36.222 68.186,28.969  "/><polygon points="57.08,53.801 64.329,53.346 62.777,44.62 55.815,46.687  "/><polygon points="94.293,47.178 87.324,49.257 85.775,40.531 93.022,40.076  "/></g><polygon points="47.971,19.027 50.629,28.046 58.078,22.305 54.93,31.167 64.329,30.91 56.57,36.22 64.329,41.533 54.93,41.276   58.078,50.139 50.629,44.397 47.971,53.416 45.32,44.397 37.87,50.139 41.021,41.276 31.622,41.533 39.378,36.22 31.622,30.91   41.021,31.167 37.87,22.305 45.32,28.046 "/></svg>