<svg xmlns="http://www.w3.org/2000/svg" xmlns:xlink="http://www.w3.org/1999/xlink" version="1.1" x="0px" y="0px" viewBox="0 0 98 122.5" style="enable-background:new 0 0 98 98;" xml:space="preserve"><style type="text/css">
	.st0{fill-rule:evenodd;clip-rule:evenodd;}
</style><path class="st0" d="M56.695,39.654c-0.892-1.544-1.129-3.344-0.667-5.067c0.462-1.723,1.567-3.163,3.111-4.055  c1.029-0.594,2.171-0.897,3.328-0.897c0.58,0,1.164,0.077,1.738,0.231c3.556,0.953,5.674,4.622,4.722,8.177  c-0.953,3.557-4.624,5.674-8.177,4.722C59.026,42.303,57.587,41.198,56.695,39.654L56.695,39.654z M68.496,13.851  c-2.24-0.6-4.528-0.857-6.82-0.778c0.122,0.89,0.217,1.719,0.284,2.486c1.983-0.05,3.958,0.174,5.894,0.693  C78.915,19.217,85.504,30.628,82.54,41.69c-0.096,0.357-0.207,0.712-0.322,1.065l2.295,0.997c0.158-0.468,0.302-0.943,0.429-1.419  C88.26,29.948,80.884,17.17,68.496,13.851L68.496,13.851z M54.02,66.797c-0.833-0.098-1.583,0.504-1.677,1.336  c-0.134,1.188-0.261,2.311-0.648,3.686c-0.115,0.409-0.253,0.837-0.398,1.292c-0.4,1.256-0.855,2.68-1.142,4.432  c-0.034,0.209-0.063,0.426-0.092,0.642l-4.177-1.12l3.733-13.932c0.542-0.385,1.028-0.849,1.438-1.384l10.773,2.886l-2.753,10.274  l-5.464,4.226l-0.599-0.161c0.039-0.324,0.081-0.639,0.131-0.941c0.252-1.533,0.671-2.846,1.04-4.003  c0.156-0.49,0.303-0.952,0.427-1.391c0.455-1.613,0.601-2.913,0.742-4.169C55.45,67.64,54.851,66.89,54.02,66.797L54.02,66.797z   M49.281,58.638c-0.522,1.944-2.527,3.102-4.473,2.582l-1.332-0.357c0.942-0.983,1.871-1.999,2.771-3.04  c1.885-2.18,3.687-4.518,4.978-6.433l-1.355,5.057L49.281,58.638L49.281,58.638z M66.155,61.648c0.068-0.251,0.031-0.513-0.098-0.74  c-0.132-0.227-0.341-0.389-0.59-0.456L52.84,57.069l-0.506,1.886l12.627,3.384c0.249,0.068,0.512,0.031,0.739-0.1  C65.927,62.107,66.089,61.898,66.155,61.648L66.155,61.648z M51.788,42.487c1.647,2.854,4.31,4.897,7.496,5.752  c6.576,1.762,13.356-2.154,15.118-8.729c1.762-6.574-2.154-13.356-8.728-15.118c-1.064-0.285-2.142-0.426-3.215-0.426  c-2.139,0-4.25,0.561-6.152,1.659c-2.856,1.648-4.898,4.31-5.751,7.495C49.701,36.306,50.139,39.632,51.788,42.487L51.788,42.487z   M62.475,46.024c4.286,0,8.218-2.864,9.379-7.197c1.386-5.171-1.694-10.504-6.864-11.889c-5.174-1.386-10.505,1.694-11.889,6.865  c-1.386,5.171,1.694,10.504,6.865,11.889C60.804,45.916,61.646,46.024,62.475,46.024L62.475,46.024z M23.856,71.058  c0.001,0,0.003,0,0.006-0.002c1.746,0,2.878-0.689,4.889-2.01c2.166-1.423,4.737-3.177,7.358-5.39  c2.593-2.189,5.378-4.964,7.845-7.816c2.22-2.567,4.399-5.464,5.551-7.376c0.961-1.599,0.831-1.853,0.65-2.205  c-0.114-0.223-0.266-0.454-0.429-0.709c-0.452-0.706-1.067-1.665-1.453-2.97c-1.423-3.225-1.705-6.873-0.791-10.284  c1.415-5.282,5.536-9.445,10.791-10.929c0.196-0.158,0.321-0.321,0.419-0.541c0.361-0.802,0.639-2.799-0.073-7.767  c-0.424-2.957-1.04-5.835-1.568-7.334c-0.178-0.503-0.27-0.621-0.287-0.64c-0.036-0.003-0.253-0.036-0.851-0.036  c-0.109,0-0.231,0.001-0.366,0.003c-1.882,0.036-5.343,0.295-8.32,0.721c-2.98,0.427-5.316,1-7.575,1.859  c-2.461,0.936-4.645,2.14-6.312,3.482c-1.623,1.305-2.96,2.894-4.472,5.314c-1.475,2.361-2.902,5.15-3.82,7.463  c-0.941,2.371-1.421,4.42-1.735,5.94l-0.036,0.17c-0.313,1.52-0.582,2.831-2.6,4.868c-0.963,0.972-2.361,2.158-3.712,3.305  c-1.2,1.017-2.44,2.07-3.268,2.884c-1.554,1.531-1.471,2.013-1.405,2.401c0.127,0.74,0.563,1.616,1.086,2.183  c0.298,0.324,0.661,0.586,1.012,0.839c0.366,0.264,0.712,0.514,0.998,0.84c0.552,0.628,1.029,1.7,0.161,3.237  c-0.911,1.615-2.044,3.985-1.37,5.906c0.096,0.275,0.317,0.63,0.531,0.973c0.294,0.472,0.597,0.96,0.76,1.501  c0.346,1.155-0.07,2.061-0.374,2.722l-0.109,0.241c-0.191,0.436-0.418,1.051-0.476,1.944c-0.036,0.578-0.031,1.716,0.429,2.855  c0.315,0.775,0.867,1.693,2.58,2.611C19.137,70.178,21.832,71.057,23.856,71.058L23.856,71.058z M41.018,79.312  c0.577,2.14,1.033,3.832,1.081,5.267c0.021,0.644-0.043,1.256-0.182,1.84l7.767-1.911c0.021-1.097,0.051-2.193,0.107-3.257  l-6.154-1.649c-0.388-0.103-0.719-0.357-0.919-0.706c-0.202-0.348-0.256-0.762-0.152-1.15l3.588-13.386  c-0.134,0.008-0.268,0.017-0.402,0.017c-0.571,0-1.151-0.074-1.728-0.228l-3.029-0.811c-0.977,0.931-1.959,1.816-2.93,2.636  c-2.268,1.915-4.476,3.484-6.442,4.805c2.054,0.27,3.945,0.728,5.373,1.652C39.62,74.128,40.428,77.124,41.018,79.312L41.018,79.312  z M72.804,81.943c0.098-0.024,0.197-0.036,0.296-0.036c0.226,0,0.45,0.062,0.65,0.183c0.288,0.174,0.49,0.447,0.569,0.769  c0.164,0.671-0.246,1.351-0.917,1.515l-34.724,8.54h0c-0.321,0.08-0.658,0.027-0.945-0.147c-0.288-0.174-0.49-0.448-0.57-0.771  c-0.079-0.322-0.027-0.658,0.147-0.945c0.174-0.288,0.447-0.49,0.77-0.569L72.804,81.943L72.804,81.943z M52.732,83.758  l14.503-3.567L64.309,67.1l-2.435,9.088c-0.087,0.321-0.274,0.604-0.537,0.807l-6.462,4.998c-0.268,0.209-0.596,0.318-0.927,0.318  c-0.131,0-0.263-0.017-0.393-0.052l-0.767-0.205C52.764,82.615,52.746,83.183,52.732,83.758L52.732,83.758z M67.169,66.002  c2.674-0.874,4.995-2.614,6.552-4.955l-2.112-0.919c-0.368-0.16-0.658-0.46-0.805-0.834c-0.148-0.374-0.141-0.791,0.02-1.159  l7.431-17.1l1.168,0.507c0.066-0.212,0.135-0.422,0.192-0.635c2.531-9.447-3.096-19.193-12.544-21.725  c-1.641-0.441-3.314-0.634-4.992-0.596c-0.023,0.921-0.116,1.701-0.271,2.369c1.547-0.065,3.111,0.098,4.649,0.51  c3.967,1.063,7.282,3.606,9.336,7.163c2.054,3.556,2.598,7.7,1.535,11.667c-1.839,6.861-8.068,11.397-14.855,11.397  c-1.314,0-2.648-0.17-3.976-0.526c-1.316-0.353-2.537-0.882-3.666-1.531l-1.207,4.506l12.627,3.384  c2.133,0.571,3.405,2.773,2.833,4.908c-0.314,1.173-1.124,2.076-2.14,2.565L67.169,66.002L67.169,66.002z M79.67,60.326  l-5.465-2.375l5.619-12.93l5.465,2.375L79.67,60.326z"/></svg>